<mxfile host="Electron" modified="2024-10-09T18:04:34.211Z" agent="Mozilla/5.0 (Windows NT 10.0; Win64; x64) AppleWebKit/537.36 (KHTML, like Gecko) draw.io/23.1.5 Chrome/120.0.6099.109 Electron/28.1.0 Safari/537.36" etag="It59foeUBNugedb3llQE" version="23.1.5" type="device">
  <diagram name="Página-1" id="uubQAVf_f915zdVn3d-j">
    <mxGraphModel dx="2396" dy="1904" grid="1" gridSize="10" guides="1" tooltips="1" connect="1" arrows="1" fold="1" page="0" pageScale="1" pageWidth="827" pageHeight="1169" math="0" shadow="0">
      <root>
        <mxCell id="0" />
        <mxCell id="1" parent="0" />
        <mxCell id="m6eOyjhON_UV8hW3yt6c-7" style="edgeStyle=orthogonalEdgeStyle;rounded=0;orthogonalLoop=1;jettySize=auto;html=1;exitX=1;exitY=0.5;exitDx=0;exitDy=0;entryX=0;entryY=0.5;entryDx=0;entryDy=0;" edge="1" parent="1" source="m6eOyjhON_UV8hW3yt6c-1" target="m6eOyjhON_UV8hW3yt6c-2">
          <mxGeometry relative="1" as="geometry" />
        </mxCell>
        <mxCell id="m6eOyjhON_UV8hW3yt6c-1" value="Cliente" style="rounded=0;whiteSpace=wrap;html=1;" vertex="1" parent="1">
          <mxGeometry x="-80" y="200" width="120" height="60" as="geometry" />
        </mxCell>
        <mxCell id="m6eOyjhON_UV8hW3yt6c-10" style="edgeStyle=orthogonalEdgeStyle;rounded=0;orthogonalLoop=1;jettySize=auto;html=1;exitX=1;exitY=0.5;exitDx=0;exitDy=0;entryX=0;entryY=0.5;entryDx=0;entryDy=0;" edge="1" parent="1" source="m6eOyjhON_UV8hW3yt6c-2" target="m6eOyjhON_UV8hW3yt6c-3">
          <mxGeometry relative="1" as="geometry" />
        </mxCell>
        <mxCell id="m6eOyjhON_UV8hW3yt6c-2" value="Planificación de la&lt;br&gt;entrega" style="ellipse;whiteSpace=wrap;html=1;" vertex="1" parent="1">
          <mxGeometry x="200" y="190" width="120" height="80" as="geometry" />
        </mxCell>
        <mxCell id="m6eOyjhON_UV8hW3yt6c-13" style="edgeStyle=orthogonalEdgeStyle;rounded=0;orthogonalLoop=1;jettySize=auto;html=1;exitX=1;exitY=0.5;exitDx=0;exitDy=0;entryX=0;entryY=0.5;entryDx=0;entryDy=0;" edge="1" parent="1" source="m6eOyjhON_UV8hW3yt6c-3" target="m6eOyjhON_UV8hW3yt6c-4">
          <mxGeometry relative="1" as="geometry" />
        </mxCell>
        <mxCell id="m6eOyjhON_UV8hW3yt6c-3" value="Seguimiento de la&lt;br&gt;entrega" style="ellipse;whiteSpace=wrap;html=1;" vertex="1" parent="1">
          <mxGeometry x="440" y="190" width="120" height="80" as="geometry" />
        </mxCell>
        <mxCell id="m6eOyjhON_UV8hW3yt6c-14" style="edgeStyle=orthogonalEdgeStyle;rounded=0;orthogonalLoop=1;jettySize=auto;html=1;exitX=0.5;exitY=1;exitDx=0;exitDy=0;entryX=0.5;entryY=1;entryDx=0;entryDy=0;" edge="1" parent="1" source="m6eOyjhON_UV8hW3yt6c-4" target="m6eOyjhON_UV8hW3yt6c-1">
          <mxGeometry relative="1" as="geometry">
            <Array as="points">
              <mxPoint x="740" y="320" />
              <mxPoint x="-20" y="320" />
            </Array>
          </mxGeometry>
        </mxCell>
        <mxCell id="m6eOyjhON_UV8hW3yt6c-4" value="actualización del&amp;nbsp;&lt;br&gt;estado del pedido" style="ellipse;whiteSpace=wrap;html=1;" vertex="1" parent="1">
          <mxGeometry x="680" y="190" width="120" height="80" as="geometry" />
        </mxCell>
        <mxCell id="m6eOyjhON_UV8hW3yt6c-21" style="edgeStyle=orthogonalEdgeStyle;rounded=0;orthogonalLoop=1;jettySize=auto;html=1;exitX=0.5;exitY=1;exitDx=0;exitDy=0;" edge="1" parent="1" source="m6eOyjhON_UV8hW3yt6c-5" target="m6eOyjhON_UV8hW3yt6c-2">
          <mxGeometry relative="1" as="geometry" />
        </mxCell>
        <mxCell id="m6eOyjhON_UV8hW3yt6c-5" value="Sistema gestion de&lt;br&gt;pedidos" style="rounded=0;whiteSpace=wrap;html=1;" vertex="1" parent="1">
          <mxGeometry x="200" y="-20" width="120" height="60" as="geometry" />
        </mxCell>
        <mxCell id="m6eOyjhON_UV8hW3yt6c-9" value="datos de entrega" style="text;html=1;align=center;verticalAlign=middle;whiteSpace=wrap;rounded=0;" vertex="1" parent="1">
          <mxGeometry x="90" y="190" width="60" height="30" as="geometry" />
        </mxCell>
        <mxCell id="m6eOyjhON_UV8hW3yt6c-11" value="información&lt;br&gt;del pedido" style="text;html=1;align=center;verticalAlign=middle;whiteSpace=wrap;rounded=0;" vertex="1" parent="1">
          <mxGeometry x="340" y="190" width="60" height="30" as="geometry" />
        </mxCell>
        <mxCell id="m6eOyjhON_UV8hW3yt6c-15" value="datos del&lt;br&gt;seguimiento" style="text;html=1;align=center;verticalAlign=middle;whiteSpace=wrap;rounded=0;" vertex="1" parent="1">
          <mxGeometry x="740" y="90" width="60" height="30" as="geometry" />
        </mxCell>
        <mxCell id="m6eOyjhON_UV8hW3yt6c-16" value="estado actual del&lt;br&gt;pedido" style="text;html=1;align=center;verticalAlign=middle;whiteSpace=wrap;rounded=0;" vertex="1" parent="1">
          <mxGeometry x="580" y="190" width="60" height="30" as="geometry" />
        </mxCell>
        <mxCell id="m6eOyjhON_UV8hW3yt6c-17" value="notificación de&lt;br&gt;estado" style="text;html=1;align=center;verticalAlign=middle;whiteSpace=wrap;rounded=0;" vertex="1" parent="1">
          <mxGeometry x="450" y="330" width="60" height="30" as="geometry" />
        </mxCell>
        <mxCell id="m6eOyjhON_UV8hW3yt6c-20" style="edgeStyle=orthogonalEdgeStyle;rounded=0;orthogonalLoop=1;jettySize=auto;html=1;exitX=0.5;exitY=0;exitDx=0;exitDy=0;entryX=0.5;entryY=0;entryDx=0;entryDy=0;" edge="1" parent="1" source="m6eOyjhON_UV8hW3yt6c-19" target="m6eOyjhON_UV8hW3yt6c-3">
          <mxGeometry relative="1" as="geometry">
            <Array as="points">
              <mxPoint x="1020" y="130" />
              <mxPoint x="500" y="130" />
            </Array>
          </mxGeometry>
        </mxCell>
        <mxCell id="m6eOyjhON_UV8hW3yt6c-19" value="Sistema de logistica" style="rounded=0;whiteSpace=wrap;html=1;" vertex="1" parent="1">
          <mxGeometry x="960" y="200" width="120" height="60" as="geometry" />
        </mxCell>
        <mxCell id="m6eOyjhON_UV8hW3yt6c-22" value="detalles del pedido" style="text;html=1;align=center;verticalAlign=middle;whiteSpace=wrap;rounded=0;" vertex="1" parent="1">
          <mxGeometry x="190" y="90" width="60" height="30" as="geometry" />
        </mxCell>
      </root>
    </mxGraphModel>
  </diagram>
</mxfile>
